<svg xmlns="http://www.w3.org/2000/svg" xmlns:xlink="http://www.w3.org/1999/xlink" width="500" zoomAndPan="magnify" viewBox="0 0 375 374.999991" height="500" preserveAspectRatio="xMidYMid meet" version="1.0"><defs><g/><clipPath id="bd9f025dd5"><path d="M 71.851562 88.082031 L 284.03125 88.082031 L 284.03125 300.257812 L 71.851562 300.257812 Z M 71.851562 88.082031 " clip-rule="nonzero"/></clipPath><clipPath id="cc3e48f993"><path d="M 177.941406 88.082031 C 119.347656 88.082031 71.851562 135.578125 71.851562 194.171875 C 71.851562 252.761719 119.347656 300.257812 177.941406 300.257812 C 236.53125 300.257812 284.03125 252.761719 284.03125 194.171875 C 284.03125 135.578125 236.53125 88.082031 177.941406 88.082031 " clip-rule="nonzero"/></clipPath><clipPath id="001de559af"><path d="M 103.855469 118.617188 L 252.355469 118.617188 L 252.355469 269.363281 L 103.855469 269.363281 Z M 103.855469 118.617188 " clip-rule="nonzero"/></clipPath><clipPath id="28d947126c"><path d="M 178.105469 118.617188 C 137.101562 118.617188 103.855469 152.359375 103.855469 193.988281 C 103.855469 235.617188 137.101562 269.359375 178.105469 269.359375 C 219.113281 269.359375 252.355469 235.617188 252.355469 193.988281 C 252.355469 152.359375 219.113281 118.617188 178.105469 118.617188 " clip-rule="nonzero"/></clipPath><clipPath id="200195d1e4"><path d="M 91.585938 106.09375 L 264.082031 106.09375 L 264.082031 282.34375 L 91.585938 282.34375 Z M 91.585938 106.09375 " clip-rule="nonzero"/></clipPath><clipPath id="40eaa439ae"><path d="M 177.832031 106.09375 C 130.199219 106.09375 91.585938 145.550781 91.585938 194.21875 C 91.585938 242.890625 130.199219 282.34375 177.832031 282.34375 C 225.46875 282.34375 264.082031 242.890625 264.082031 194.21875 C 264.082031 145.550781 225.46875 106.09375 177.832031 106.09375 " clip-rule="nonzero"/></clipPath></defs><g clip-path="url(#bd9f025dd5)"><g clip-path="url(#cc3e48f993)"><path fill="#273d57" d="M 71.851562 88.082031 L 284.03125 88.082031 L 284.03125 300.257812 L 71.851562 300.257812 Z M 71.851562 88.082031 " fill-opacity="1" fill-rule="nonzero"/></g></g><g clip-path="url(#001de559af)"><g clip-path="url(#28d947126c)"><path fill="#e8ac66" d="M 178.105469 120.859375 C 177.371094 120.859375 176.636719 120.871094 175.902344 120.894531 L 175.765625 116.40625 C 176.546875 116.382812 177.324219 116.371094 178.105469 116.371094 Z M 173.71875 120.996094 C 172.992188 121.039062 172.269531 121.09375 171.546875 121.160156 L 171.132812 116.691406 C 171.902344 116.621094 172.671875 116.558594 173.441406 116.511719 Z M 169.371094 121.394531 C 168.644531 121.480469 167.921875 121.582031 167.199219 121.695312 L 166.511719 117.257812 C 167.277344 117.140625 168.046875 117.03125 168.820312 116.9375 Z M 165.050781 122.058594 C 164.335938 122.191406 163.625 122.335938 162.914062 122.492188 L 161.949219 118.105469 C 162.703125 117.941406 163.460938 117.789062 164.222656 117.648438 Z M 160.78125 122.992188 C 160.074219 123.167969 159.371094 123.355469 158.671875 123.554688 L 157.433594 119.238281 C 158.179688 119.027344 158.925781 118.828125 159.679688 118.640625 Z M 156.585938 124.183594 C 155.890625 124.402344 155.199219 124.636719 154.507812 124.878906 L 153.003906 120.648438 C 153.738281 120.386719 154.472656 120.140625 155.214844 119.90625 Z M 152.460938 125.636719 C 151.78125 125.898438 151.109375 126.171875 150.441406 126.453125 L 148.675781 122.324219 C 149.386719 122.023438 150.101562 121.730469 150.824219 121.453125 Z M 148.4375 127.339844 C 147.777344 127.640625 147.121094 127.957031 146.46875 128.28125 L 144.449219 124.265625 C 145.144531 123.921875 145.84375 123.585938 146.546875 123.261719 Z M 144.53125 129.285156 C 143.886719 129.628906 143.253906 129.980469 142.621094 130.347656 L 140.359375 126.460938 C 141.03125 126.074219 141.707031 125.699219 142.390625 125.332031 Z M 140.746094 131.464844 C 140.125 131.847656 139.511719 132.242188 138.90625 132.640625 L 136.410156 128.902344 C 137.054688 128.476562 137.707031 128.058594 138.367188 127.652344 Z M 137.101562 133.875 C 136.503906 134.292969 135.917969 134.722656 135.332031 135.160156 L 132.617188 131.578125 C 133.234375 131.113281 133.859375 130.65625 134.492188 130.210938 Z M 133.605469 136.5 C 133.035156 136.953125 132.476562 137.417969 131.917969 137.890625 L 128.988281 134.476562 C 129.578125 133.976562 130.175781 133.484375 130.78125 133 Z M 130.277344 139.332031 C 129.734375 139.820312 129.203125 140.316406 128.675781 140.820312 L 125.546875 137.589844 C 126.105469 137.054688 126.671875 136.527344 127.246094 136.007812 Z M 127.121094 142.359375 C 126.613281 142.878906 126.109375 143.402344 125.617188 143.9375 L 122.296875 140.898438 C 122.824219 140.332031 123.355469 139.773438 123.894531 139.222656 Z M 124.160156 145.5625 C 123.683594 146.109375 123.214844 146.664062 122.75 147.226562 L 119.257812 144.390625 C 119.746094 143.792969 120.246094 143.203125 120.753906 142.621094 Z M 121.390625 148.9375 C 120.945312 149.515625 120.511719 150.101562 120.082031 150.691406 L 116.421875 148.066406 C 116.878906 147.4375 117.339844 146.820312 117.8125 146.207031 Z M 118.824219 152.484375 C 118.414062 153.085938 118.015625 153.691406 117.625 154.308594 L 113.816406 151.902344 C 114.230469 151.25 114.652344 150.605469 115.085938 149.96875 Z M 116.480469 156.160156 C 116.105469 156.789062 115.742188 157.417969 115.390625 158.054688 L 111.445312 155.878906 C 111.820312 155.203125 112.207031 154.535156 112.601562 153.871094 Z M 114.355469 159.976562 C 114.023438 160.621094 113.699219 161.269531 113.382812 161.921875 L 109.316406 159.984375 C 109.648438 159.289062 109.996094 158.601562 110.347656 157.917969 Z M 112.46875 163.902344 C 112.171875 164.566406 111.886719 165.238281 111.609375 165.910156 L 107.433594 164.214844 C 107.726562 163.5 108.03125 162.789062 108.34375 162.085938 Z M 110.816406 167.933594 C 110.558594 168.613281 110.316406 169.300781 110.078125 169.988281 L 105.808594 168.539062 C 106.058594 167.8125 106.320312 167.085938 106.589844 166.363281 Z M 109.402344 172.066406 C 109.1875 172.757812 108.984375 173.453125 108.792969 174.148438 L 104.445312 172.957031 C 104.648438 172.21875 104.863281 171.480469 105.089844 170.746094 Z M 108.242188 176.257812 C 108.070312 176.964844 107.90625 177.675781 107.753906 178.386719 L 103.34375 177.453125 C 103.503906 176.699219 103.675781 175.945312 103.859375 175.191406 Z M 107.332031 180.523438 C 107.199219 181.234375 107.078125 181.949219 106.96875 182.664062 L 102.511719 181.988281 C 102.628906 181.230469 102.753906 180.472656 102.894531 179.71875 Z M 106.671875 184.828125 C 106.582031 185.550781 106.503906 186.277344 106.4375 187.003906 L 101.945312 186.589844 C 102.015625 185.820312 102.101562 185.050781 102.195312 184.285156 Z M 106.265625 189.164062 C 106.21875 189.890625 106.183594 190.613281 106.160156 191.339844 L 101.652344 191.183594 C 101.679688 190.414062 101.714844 189.644531 101.765625 188.878906 Z M 106.113281 193.53125 L 106.113281 193.996094 C 106.113281 194.574219 106.121094 195.15625 106.132812 195.738281 L 101.625 195.839844 C 101.609375 195.222656 101.601562 194.605469 101.601562 193.980469 L 101.605469 193.515625 Z M 106.214844 197.921875 C 106.253906 198.644531 106.300781 199.367188 106.359375 200.089844 L 101.863281 200.449219 C 101.800781 199.6875 101.75 198.921875 101.710938 198.152344 Z M 106.566406 202.253906 C 106.648438 202.980469 106.738281 203.703125 106.839844 204.425781 L 102.375 205.046875 C 102.265625 204.28125 102.167969 203.515625 102.082031 202.746094 Z M 107.175781 206.578125 C 107.296875 207.289062 107.429688 208 107.570312 208.707031 L 103.148438 209.589844 C 102.996094 208.839844 102.859375 208.085938 102.726562 207.328125 Z M 108.035156 210.847656 C 108.199219 211.554688 108.375 212.261719 108.558594 212.964844 L 104.199219 214.105469 C 104 213.359375 103.816406 212.609375 103.640625 211.859375 Z M 109.144531 215.058594 C 109.351562 215.753906 109.566406 216.449219 109.792969 217.140625 L 105.507812 218.535156 C 105.265625 217.800781 105.035156 217.0625 104.816406 216.324219 Z M 110.507812 219.203125 C 110.753906 219.886719 111.011719 220.5625 111.277344 221.238281 L 107.082031 222.882812 C 106.796875 222.167969 106.523438 221.449219 106.261719 220.722656 Z M 112.109375 223.25 C 112.394531 223.921875 112.695312 224.585938 113 225.246094 L 108.910156 227.136719 C 108.582031 226.433594 108.265625 225.730469 107.960938 225.019531 Z M 113.953125 227.207031 C 114.277344 227.855469 114.613281 228.496094 114.957031 229.136719 L 110.984375 231.261719 C 110.621094 230.585938 110.265625 229.902344 109.917969 229.214844 Z M 116.027344 231.042969 C 116.390625 231.671875 116.765625 232.296875 117.148438 232.914062 L 113.308594 235.269531 C 112.902344 234.617188 112.507812 233.953125 112.121094 233.285156 Z M 118.324219 234.746094 C 118.726562 235.355469 119.136719 235.957031 119.558594 236.554688 L 115.867188 239.136719 C 115.421875 238.503906 114.984375 237.863281 114.558594 237.214844 Z M 120.847656 238.324219 C 121.285156 238.90625 121.734375 239.480469 122.1875 240.050781 L 118.660156 242.847656 C 118.175781 242.242188 117.703125 241.632812 117.238281 241.011719 Z M 123.578125 241.738281 C 124.046875 242.292969 124.527344 242.839844 125.015625 243.378906 L 121.660156 246.378906 C 121.140625 245.804688 120.632812 245.222656 120.132812 244.636719 Z M 126.5 244.976562 C 127.003906 245.5 127.511719 246.019531 128.03125 246.53125 L 124.863281 249.722656 C 124.3125 249.179688 123.769531 248.632812 123.234375 248.074219 Z M 129.613281 248.039062 C 130.148438 248.535156 130.691406 249.023438 131.238281 249.5 L 128.269531 252.878906 C 127.683594 252.367188 127.109375 251.851562 126.542969 251.324219 Z M 132.910156 250.910156 C 133.472656 251.375 134.042969 251.828125 134.621094 252.273438 L 131.855469 255.820312 C 131.246094 255.347656 130.640625 254.867188 130.039062 254.375 Z M 136.371094 253.582031 C 136.960938 254.007812 137.558594 254.425781 138.160156 254.835938 L 135.621094 258.546875 C 134.980469 258.109375 134.347656 257.667969 133.71875 257.210938 Z M 139.984375 256.035156 C 140.601562 256.425781 141.222656 256.804688 141.847656 257.179688 L 139.539062 261.035156 C 138.871094 260.640625 138.210938 260.234375 137.558594 259.820312 Z M 143.742188 258.265625 C 144.378906 258.617188 145.023438 258.957031 145.667969 259.289062 L 143.601562 263.28125 C 142.914062 262.925781 142.230469 262.5625 141.554688 262.1875 Z M 147.625 260.257812 C 148.285156 260.570312 148.949219 260.875 149.617188 261.167969 L 147.800781 265.277344 C 147.089844 264.964844 146.382812 264.640625 145.683594 264.308594 Z M 151.628906 262.011719 C 152.300781 262.28125 152.980469 262.542969 153.664062 262.792969 L 152.105469 267.007812 C 151.378906 266.742188 150.65625 266.460938 149.9375 266.175781 Z M 155.730469 263.515625 C 156.421875 263.746094 157.117188 263.964844 157.8125 264.171875 L 156.519531 268.472656 C 155.777344 268.25 155.039062 268.019531 154.304688 267.773438 Z M 159.914062 264.761719 C 160.617188 264.949219 161.324219 265.125 162.035156 265.289062 L 161.015625 269.660156 C 160.257812 269.484375 159.503906 269.296875 158.753906 269.101562 Z M 164.175781 265.75 C 164.886719 265.890625 165.601562 266.019531 166.316406 266.140625 L 165.570312 270.566406 C 164.808594 270.441406 164.046875 270.300781 163.292969 270.148438 Z M 168.480469 266.46875 C 169.203125 266.566406 169.933594 266.652344 170.660156 266.730469 L 170.191406 271.195312 C 169.414062 271.113281 168.640625 271.019531 167.871094 270.914062 Z M 172.824219 266.921875 C 173.550781 266.976562 174.277344 267.019531 175.003906 267.050781 L 174.808594 271.535156 C 174.035156 271.5 173.261719 271.457031 172.492188 271.398438 Z M 177.1875 267.109375 L 178.121094 267.117188 L 179.429688 267.105469 L 179.46875 271.59375 L 178.09375 271.605469 L 177.160156 271.597656 Z M 181.601562 267.03125 C 182.328125 266.996094 183.054688 266.949219 183.777344 266.890625 L 184.136719 271.367188 C 183.367188 271.429688 182.59375 271.476562 181.824219 271.515625 Z M 185.945312 266.6875 C 186.675781 266.609375 187.402344 266.515625 188.125 266.414062 L 188.757812 270.859375 C 187.988281 270.96875 187.214844 271.066406 186.441406 271.148438 Z M 190.285156 266.074219 C 191 265.953125 191.710938 265.816406 192.421875 265.671875 L 193.328125 270.066406 C 192.574219 270.222656 191.816406 270.367188 191.054688 270.496094 Z M 194.5625 265.199219 C 195.269531 265.03125 195.976562 264.851562 196.679688 264.660156 L 197.863281 268.992188 C 197.113281 269.195312 196.363281 269.386719 195.609375 269.566406 Z M 198.773438 264.058594 C 199.472656 263.847656 200.167969 263.625 200.855469 263.390625 L 202.308594 267.640625 C 201.570312 267.890625 200.832031 268.125 200.09375 268.351562 Z M 202.917969 262.660156 C 203.597656 262.40625 204.277344 262.140625 204.949219 261.863281 L 206.660156 266.019531 C 205.945312 266.3125 205.226562 266.59375 204.5 266.863281 Z M 206.957031 261.007812 C 207.625 260.710938 208.285156 260.40625 208.941406 260.089844 L 210.910156 264.128906 C 210.210938 264.464844 209.507812 264.792969 208.796875 265.105469 Z M 210.894531 259.109375 C 211.539062 258.773438 212.179688 258.429688 212.8125 258.074219 L 215.023438 261.988281 C 214.351562 262.363281 213.667969 262.730469 212.984375 263.089844 Z M 214.703125 256.976562 C 215.328125 256.601562 215.945312 256.21875 216.558594 255.824219 L 219.007812 259.59375 C 218.355469 260.011719 217.699219 260.421875 217.035156 260.820312 Z M 218.375 254.617188 C 218.976562 254.203125 219.570312 253.78125 220.160156 253.351562 L 222.832031 256.964844 C 222.207031 257.425781 221.578125 257.871094 220.9375 258.3125 Z M 221.90625 252.03125 C 222.480469 251.585938 223.046875 251.128906 223.609375 250.664062 L 226.496094 254.113281 C 225.898438 254.605469 225.296875 255.089844 224.6875 255.566406 Z M 225.269531 249.242188 C 225.816406 248.761719 226.355469 248.269531 226.886719 247.773438 L 229.976562 251.042969 C 229.414062 251.570312 228.839844 252.089844 228.261719 252.601562 Z M 228.460938 246.253906 C 228.976562 245.742188 229.484375 245.21875 229.984375 244.691406 L 233.265625 247.773438 C 232.734375 248.332031 232.195312 248.886719 231.648438 249.429688 Z M 231.460938 243.085938 C 231.945312 242.542969 232.421875 241.996094 232.890625 241.4375 L 236.351562 244.316406 C 235.851562 244.910156 235.347656 245.492188 234.832031 246.070312 Z M 234.269531 239.746094 C 234.722656 239.171875 235.167969 238.59375 235.601562 238.007812 L 239.226562 240.679688 C 238.765625 241.300781 238.296875 241.914062 237.816406 242.519531 Z M 236.882812 236.234375 C 237.296875 235.636719 237.707031 235.03125 238.105469 234.421875 L 241.886719 236.871094 C 241.460938 237.519531 241.027344 238.160156 240.585938 238.792969 Z M 239.273438 232.582031 C 239.652344 231.960938 240.023438 231.335938 240.382812 230.703125 L 244.304688 232.925781 C 243.917969 233.597656 243.527344 234.261719 243.121094 234.917969 Z M 241.441406 228.789062 C 241.785156 228.152344 242.117188 227.507812 242.4375 226.855469 L 246.480469 228.84375 C 246.140625 229.535156 245.789062 230.21875 245.425781 230.898438 Z M 243.378906 224.890625 C 243.683594 224.226562 243.976562 223.5625 244.261719 222.890625 L 248.417969 224.636719 C 248.113281 225.347656 247.800781 226.054688 247.480469 226.757812 Z M 245.082031 220.875 C 245.34375 220.199219 245.597656 219.519531 245.839844 218.835938 L 250.09375 220.332031 C 249.835938 221.058594 249.566406 221.78125 249.285156 222.5 Z M 246.542969 216.765625 C 246.765625 216.074219 246.976562 215.378906 247.179688 214.683594 L 251.511719 215.929688 C 251.296875 216.667969 251.074219 217.40625 250.835938 218.136719 Z M 247.753906 212.585938 C 247.933594 211.882812 248.105469 211.175781 248.269531 210.464844 L 252.667969 211.453125 C 252.496094 212.207031 252.316406 212.957031 252.121094 213.703125 Z M 248.71875 208.328125 C 248.859375 207.617188 248.988281 206.90625 249.105469 206.191406 L 253.554688 206.921875 C 253.429688 207.679688 253.292969 208.433594 253.144531 209.183594 Z M 249.429688 204.039062 C 249.527344 203.3125 249.613281 202.589844 249.691406 201.863281 L 254.175781 202.328125 C 254.09375 203.101562 254.003906 203.871094 253.898438 204.636719 Z M 249.886719 199.703125 C 249.941406 198.980469 249.984375 198.253906 250.019531 197.53125 L 254.523438 197.738281 C 254.488281 198.507812 254.441406 199.273438 254.382812 200.039062 Z M 250.089844 195.363281 L 250.101562 193.96875 L 250.097656 193.128906 L 254.609375 193.105469 L 254.613281 194.007812 L 254.601562 195.402344 Z M 250.042969 190.949219 C 250.011719 190.222656 249.972656 189.5 249.921875 188.773438 L 254.421875 188.464844 C 254.476562 189.234375 254.515625 190 254.546875 190.769531 Z M 249.742188 186.617188 C 249.667969 185.890625 249.585938 185.164062 249.496094 184.441406 L 253.96875 183.871094 C 254.066406 184.640625 254.152344 185.410156 254.230469 186.179688 Z M 249.183594 182.28125 C 249.070312 181.5625 248.949219 180.851562 248.8125 180.140625 L 253.246094 179.3125 C 253.386719 180.066406 253.519531 180.820312 253.640625 181.582031 Z M 248.378906 178.003906 C 248.222656 177.292969 248.054688 176.582031 247.878906 175.878906 L 252.253906 174.789062 C 252.441406 175.539062 252.617188 176.292969 252.785156 177.046875 Z M 247.316406 173.773438 C 247.121094 173.078125 246.914062 172.382812 246.695312 171.691406 L 251 170.347656 C 251.230469 171.082031 251.449219 171.820312 251.660156 172.558594 Z M 246.007812 169.617188 C 245.769531 168.929688 245.519531 168.246094 245.261719 167.570312 L 249.476562 165.976562 C 249.753906 166.695312 250.015625 167.417969 250.269531 168.148438 Z M 244.457031 165.550781 C 244.175781 164.878906 243.886719 164.210938 243.585938 163.546875 L 247.699219 161.707031 C 248.019531 162.410156 248.328125 163.121094 248.625 163.835938 Z M 242.660156 161.570312 C 242.34375 160.917969 242.015625 160.273438 241.675781 159.628906 L 245.675781 157.550781 C 246.03125 158.230469 246.378906 158.917969 246.71875 159.609375 Z M 240.632812 157.710938 C 240.277344 157.078125 239.910156 156.449219 239.535156 155.828125 L 243.402344 153.515625 C 243.800781 154.175781 244.1875 154.84375 244.566406 155.515625 Z M 238.378906 153.976562 C 237.984375 153.367188 237.582031 152.761719 237.167969 152.160156 L 240.890625 149.625 C 241.328125 150.261719 241.757812 150.902344 242.175781 151.554688 Z M 235.902344 150.375 C 235.472656 149.785156 235.03125 149.203125 234.582031 148.628906 L 238.144531 145.875 C 238.621094 146.488281 239.089844 147.105469 239.546875 147.730469 Z M 233.214844 146.925781 C 232.75 146.367188 232.277344 145.8125 231.796875 145.265625 L 235.1875 142.308594 C 235.699219 142.886719 236.199219 143.476562 236.691406 144.070312 Z M 230.332031 143.652344 C 229.835938 143.121094 229.332031 142.597656 228.816406 142.078125 L 232.027344 138.925781 C 232.570312 139.472656 233.105469 140.027344 233.632812 140.59375 Z M 227.253906 140.550781 C 226.726562 140.046875 226.191406 139.554688 225.648438 139.070312 L 228.660156 135.730469 C 229.238281 136.246094 229.808594 136.769531 230.367188 137.300781 Z M 223.996094 137.636719 C 223.4375 137.167969 222.875 136.707031 222.300781 136.257812 L 225.109375 132.742188 C 225.714844 133.222656 226.316406 133.710938 226.90625 134.207031 Z M 220.566406 134.925781 C 219.980469 134.492188 219.390625 134.066406 218.792969 133.648438 L 221.378906 129.972656 C 222.015625 130.414062 222.644531 130.867188 223.265625 131.328125 Z M 216.980469 132.425781 C 216.371094 132.027344 215.757812 131.640625 215.136719 131.261719 L 217.492188 127.433594 C 218.152344 127.835938 218.808594 128.25 219.457031 128.671875 Z M 213.253906 130.152344 C 212.621094 129.789062 211.984375 129.441406 211.339844 129.101562 L 213.457031 125.136719 C 214.140625 125.5 214.820312 125.871094 215.492188 126.253906 Z M 209.394531 128.109375 C 208.742188 127.785156 208.082031 127.476562 207.417969 127.175781 L 209.289062 123.089844 C 209.992188 123.410156 210.695312 123.742188 211.390625 124.082031 Z M 205.414062 126.304688 C 204.742188 126.023438 204.070312 125.753906 203.390625 125.496094 L 205.003906 121.304688 C 205.722656 121.578125 206.441406 121.863281 207.15625 122.164062 Z M 201.335938 124.75 C 200.644531 124.511719 199.953125 124.28125 199.253906 124.066406 L 200.601562 119.78125 C 201.34375 120.011719 202.082031 120.253906 202.816406 120.507812 Z M 197.167969 123.449219 C 196.464844 123.253906 195.761719 123.070312 195.054688 122.898438 L 196.132812 118.539062 C 196.882812 118.722656 197.632812 118.917969 198.378906 119.125 Z M 192.914062 122.410156 C 192.207031 122.257812 191.492188 122.117188 190.777344 121.988281 L 191.582031 117.570312 C 192.34375 117.707031 193.101562 117.859375 193.855469 118.019531 Z M 188.625 121.636719 C 187.902344 121.527344 187.179688 121.429688 186.453125 121.347656 L 186.980469 116.886719 C 187.75 116.976562 188.523438 117.082031 189.292969 117.195312 Z M 184.28125 121.125 C 183.554688 121.0625 182.832031 121.011719 182.105469 120.972656 L 182.359375 116.488281 C 183.128906 116.53125 183.898438 116.585938 184.667969 116.652344 Z M 179.917969 120.882812 C 179.316406 120.867188 178.710938 120.859375 178.105469 120.859375 L 178.105469 116.371094 C 178.75 116.371094 179.390625 116.378906 180.03125 116.394531 Z M 179.917969 120.882812 " fill-opacity="1" fill-rule="nonzero"/></g></g><g clip-path="url(#200195d1e4)"><g clip-path="url(#40eaa439ae)"><path stroke-linecap="butt" transform="matrix(0.749084, 0, 0, 0.750449, 91.584937, 106.095264)" fill="none" stroke-linejoin="miter" d="M 115.13677 -0.00201777 C 51.548678 -0.00201777 0.00133578 52.575876 0.00133578 117.427671 C 0.00133578 182.284671 51.548678 234.85736 115.13677 234.85736 C 178.730076 234.85736 230.277418 182.284671 230.277418 117.427671 C 230.277418 52.575876 178.730076 -0.00201777 115.13677 -0.00201777 " stroke="#e8ac66" stroke-width="6" stroke-opacity="1" stroke-miterlimit="4"/></g></g><g fill="#e8ac66" fill-opacity="1"><g transform="translate(128.372705, 223.044945)"><g><path d="M 14.484375 -68.796875 L 45.359375 -68.796875 C 47.015625 -68.796875 47.84375 -68.078125 47.84375 -66.640625 C 47.84375 -65.578125 47.628906 -64.832031 47.203125 -64.40625 C 46.773438 -63.976562 46 -63.765625 44.875 -63.765625 L 18 -63.765625 L 15.359375 -38.71875 L 37.515625 -38.71875 C 39.378906 -38.71875 40.3125 -38.023438 40.3125 -36.640625 C 40.3125 -35.578125 40.082031 -34.816406 39.625 -34.359375 C 39.175781 -33.910156 38.394531 -33.6875 37.28125 -33.6875 L 14.640625 -33.6875 L 11.125 -5.125 L 39.6875 -5.125 C 41.070312 -5.125 41.765625 -4.320312 41.765625 -2.71875 C 41.765625 -1.914062 41.550781 -1.257812 41.125 -0.75 C 40.695312 -0.25 40.160156 0 39.515625 0 L 7.203125 0 C 5.441406 0 4.5625 -0.691406 4.5625 -2.078125 C 4.5625 -2.398438 4.585938 -2.800781 4.640625 -3.28125 L 12.234375 -66.078125 C 12.398438 -67.890625 13.148438 -68.796875 14.484375 -68.796875 Z M 14.484375 -68.796875 "/></g></g></g><g fill="#e8ac66" fill-opacity="1"><g transform="translate(178.010397, 223.044945)"><g><path d="M 39.203125 -5.125 C 40.640625 -5.125 41.359375 -4.320312 41.359375 -2.71875 C 41.359375 -1.914062 41.144531 -1.257812 40.71875 -0.75 C 40.289062 -0.25 39.757812 0 39.125 0 L 7.046875 0 C 5.335938 0 4.484375 -0.664062 4.484375 -2 L 4.484375 -2.484375 L 12.234375 -67.203125 C 12.453125 -68.910156 13.535156 -69.765625 15.484375 -69.765625 C 17.429688 -69.765625 18.40625 -69.097656 18.40625 -67.765625 L 18.40625 -67.203125 L 10.953125 -5.125 Z M 39.203125 -5.125 "/></g></g></g></svg>